<svg width="30" height="31" viewBox="0 0 30 31" fill="none" xmlns="http://www.w3.org/2000/svg">
<path d="M6.21429 0.0612255C6.57858 0.0306128 6.89083 0.11939 7.09288 0.453069C7.54594 1.18778 8.00207 1.92248 8.43371 2.67556C8.9327 3.54496 9.39189 4.43885 9.8817 5.31744C10.0072 5.55316 10.1817 5.76744 10.3286 5.99398C10.4633 6.20827 10.5919 6.42868 10.7174 6.64297C10.9746 7.12971 10.9623 7.61952 10.5797 8.0083C10.0348 8.56545 9.43475 9.08281 8.85617 9.61241C8.37249 10.0563 7.87044 10.4818 7.399 10.9349C7.03165 11.29 6.93675 11.7339 7.18471 12.2022C7.56737 12.9186 7.94697 13.6349 8.36637 14.336C9.9215 16.9289 11.9083 19.133 14.4185 20.832C15.3859 21.4902 16.393 22.0932 17.4094 22.6688C18.3676 23.2106 18.741 23.1188 19.4849 22.2892C20.1768 21.5208 20.8441 20.7401 21.5329 19.9656C21.6982 19.7789 21.8972 19.6136 22.0901 19.4544C22.4819 19.1238 22.9105 19.0871 23.3605 19.3136C23.486 19.3748 23.6207 19.4299 23.7309 19.5095C24.9248 20.3636 26.2595 20.9667 27.5208 21.6922C28.1973 22.081 28.8555 22.4973 29.5198 22.8953C29.878 23.1065 30.0218 23.4157 29.9973 23.8412C29.93 25.0382 29.731 26.2137 29.0361 27.2239C28.7453 27.6433 28.332 28.0107 27.9157 28.3076C26.7616 29.1158 25.4728 29.6148 24.1013 29.9209C22.8554 30.1995 21.6125 30.0985 20.4186 29.725C18.1135 29.0148 15.842 28.2005 13.7512 26.9668C11.8532 25.8433 10.1266 24.4872 8.52861 22.9718C6.50511 21.0463 4.69896 18.9462 3.23873 16.5554C2.28667 15.0033 1.60707 13.3319 0.991752 11.6267C0.618276 10.5981 0.250923 9.57873 0.0856141 8.48892C-0.104185 7.25522 0.0274499 6.06745 0.422354 4.89804C0.777463 3.8419 1.22135 2.83168 1.89177 1.9286C2.41831 1.22757 3.07648 0.713277 3.92752 0.483682C4.61018 0.303066 5.29897 0.159186 5.98469 0C6.07347 0.0704094 6.14388 0.0704094 6.21429 0.0612255Z" fill="white"/>
</svg>
