<svg width="60" height="60" viewBox="0 0 60 60" fill="none" xmlns="http://www.w3.org/2000/svg">
<path d="M30 60C46.5685 60 60 46.5685 60 30C60 13.4315 46.5685 0 30 0C13.4315 0 0 13.4315 0 30C0 46.5685 13.4315 60 30 60Z" fill="#25D366"/>
<path d="M30.9883 11C35.7603 11.0021 40.2395 12.8597 43.6074 16.2314C46.9753 19.6031 48.8299 24.0852 48.8281 28.8516C48.8242 38.6849 40.8246 46.6862 30.9893 46.6904H30.9814C27.996 46.6894 25.0625 45.9406 22.457 44.5195L13 47L15.5312 37.7559C13.9702 35.0505 13.1481 31.9819 13.1494 28.8379C13.1533 19.0023 21.1558 11.0002 30.9883 11ZM30.9951 14.0127C22.8166 14.0127 16.1644 20.6639 16.1611 28.8389C16.16 31.6405 16.9445 34.3689 18.4287 36.7295L18.7812 37.291L17.2832 42.7617L22.8945 41.29L23.4365 41.6113C25.7128 42.9621 28.3221 43.6766 30.9824 43.6777H30.9893C39.1613 43.6775 45.8122 37.026 45.8154 28.8506C45.8169 24.889 44.2767 21.1639 41.4775 18.3613C38.6783 15.5588 34.9552 14.0142 30.9951 14.0127ZM24.6729 20.5996C24.97 20.5996 25.2676 20.6022 25.5273 20.6152C25.8009 20.629 26.1684 20.5117 26.5303 21.3809C26.9018 22.2735 27.7929 24.4673 27.9043 24.6904C28.0157 24.9135 28.09 25.1741 27.9414 25.4717C27.793 25.7687 27.7188 25.9548 27.4961 26.2148C27.2732 26.475 27.0277 26.7963 26.8271 26.9961C26.6041 27.2183 26.372 27.4593 26.6318 27.9053C26.8918 28.3515 27.7863 29.8112 29.1113 30.9932C30.8139 32.5118 32.2506 32.982 32.6963 33.2051C33.1418 33.4283 33.4021 33.3911 33.6621 33.0938C33.9224 32.7959 34.7762 31.7917 35.0732 31.3457C35.3703 30.9001 35.6678 30.9744 36.0762 31.123C36.4854 31.2722 38.6764 32.3502 39.1221 32.5732C39.5674 32.7962 39.8641 32.908 39.9756 33.0938C40.087 33.2796 40.0871 34.1725 39.7158 35.2139C39.3439 36.2549 37.5634 37.2051 36.707 37.333C35.9393 37.4478 34.9678 37.4954 33.9004 37.1562C33.2531 36.9509 32.4226 36.6769 31.3594 36.2178C26.8885 34.2872 23.9676 29.7858 23.7441 29.4873C23.5213 29.1899 21.9248 27.07 21.9248 24.876C21.9248 22.6821 23.0758 21.6035 23.4844 21.1572C23.8928 20.7112 24.3757 20.5997 24.6729 20.5996Z" fill="#FDFDFD"/>
</svg>
